{"title":"God Father Malayalam (1991)","uid":5959486,"size":1468262400,"categoryP":"video","categoryS":"movies","magnet":"?xt=urn:btih:56e4ae9833a0f26d7abc23264389cffd6fde9e74&amp;dn=God+Father+Malayalam+%281991%29&amp;tr=udp%3A%2F%2Ftracker.openbittorrent.com%3A80&amp;tr=udp%3A%2F%2Fopen.demonii.com%3A1337&amp;tr=udp%3A%2F%2Ftracker.coppersurfer.tk%3A6969&amp;tr=udp%3A%2F%2Fexodus.desync.com%3A6969","seeders":0,"leechers":1,"uploader":"cijob","files":2,"time":1289897677,"description":"Two rival clans under Anjooran and Achamma have a history of mutual hatred. Anjooran, convinced that women are the root of all evil, ensures that all his sons stay bachelors. The youngest son, Ramabhadran falls in love with Malu, from Achamma's family. A complicated tug-of-war ensues. Written by Joyojeet Pal   \n\n\nGeneral\nComplete name                    : E:\\Malayalam Movies\\GodFather\\GodFather.cd1.avi\nFormat                           : AVI\nFormat/Info                      : Audio Video Interleave\nFile size                        : 700 MiB\nDuration                         : 1h 15mn\nOverall bit rate                 : 1 295 Kbps\nWriting application              : VirtualDubMod 1.5.4.1 (build 2178/release)\nWriting library                  : VirtualDubMod build 2178/release\n\nVideo\nID                               : 0\nFormat                           : MPEG-4 Visual\nFormat profile                   : Advanced Simple@L5\nFormat settings, BVOP            : Yes\nFormat settings, QPel            : No\nFormat settings, GMC             : No warppoints\nFormat settings, Matrix          : Custom\nCodec ID                         : XVID\nCodec ID/Hint                    : XviD\nDuration                         : 1h 15mn\nBit rate                         : 1 095 Kbps\nWidth                            : 512 pixels\nHeight                           : 320 pixels\nDisplay aspect ratio             : 1.600\nFrame rate                       : 29.970 fps\nColor space                      : YUV\nChroma subsampling               : 4:2:0\nBit depth                        : 8 bits\nScan type                        : Progressive\nBits/(Pixel*Frame)               : 0.223\nStream size                      : 592 MiB (85%)\nWriting library                  : XviD 1.0.3 (UTC 2004-12-20)\n\nAudio\nID                               : 1\nFormat                           : AC-3\nFormat/Info                      : Audio Coding 3\nMode extension                   : CM (complete main)\nCodec ID                         : 2000\nDuration                         : 1h 15mn\nBit rate mode                    : Constant\nBit rate                         : 192 Kbps\nChannel(s)                       : 2 channels\nChannel positions                : Front: L R\nSampling rate                    : 48.0 KHz\nBit depth                        : 16 bits\nStream size                      : 104 MiB (15%)\nAlignment                        : Aligned on interleaves\nInterleave, duration             : 96 ms (2.88 video frames)\nInterleave, preload duration     : 96 ms\nLanguage                         : un / Ndonga / un / Ndonga\n\n","torrent":{"xt":"urn:btih:56e4ae9833a0f26d7abc23264389cffd6fde9e74","amp;dn":"God+Father+Malayalam+%281991%29","amp;tr":["udp%3A%2F%2Ftracker.openbittorrent.com%3A80","udp%3A%2F%2Fopen.demonii.com%3A1337","udp%3A%2F%2Ftracker.coppersurfer.tk%3A6969","udp%3A%2F%2Fexodus.desync.com%3A6969"],"infoHash":"56e4ae9833a0f26d7abc23264389cffd6fde9e74","infoHashBuffer":{"type":"Buffer","data":[86,228,174,152,51,160,242,109,122,188,35,38,67,137,207,253,111,222,158,116]},"announce":[],"urlList":[]}}